HIERARCHY
ROOT Hips
{
  OFFSET -5.79066 91.4951 -7.59747
  CHANNELS 6 Xposition Yposition Zposition Zrotation Xrotation Yrotation
  JOINT ToSpine
  {
    OFFSET -2.69724 7.43032 -0.144315
    CHANNELS 3 Zrotation Xrotation Yrotation
    JOINT Spine
    {
      OFFSET -0.0310711 10.7595 1.96963
      CHANNELS 3 Zrotation Xrotation Yrotation
      JOINT Spine1
      {
        OFFSET 13.1342 3.43533 0.764692
        CHANNELS 3 Zrotation Xrotation Yrotation
        JOINT Neck
        {
          OFFSET 29.8703 7.82586 -0.130764
          CHANNELS 3 Zrotation Xrotation Yrotation
          JOINT Head
          {
            OFFSET 9.52751 0.295786 -0.907742
            CHANNELS 3 Zrotation Xrotation Yrotation
            End Site
            {
              OFFSET 16.4037 0.713936 2.7358
            }
          }
        }
        JOINT LeftShoulder
        {
          OFFSET 27.5574 4.95586 2.47156
          CHANNELS 3 Zrotation Xrotation Yrotation
          JOINT LeftArm
          {
            OFFSET 1.20734 -0.998971 20.1238
            CHANNELS 3 Zrotation Xrotation Yrotation
            JOINT LeftForeArm
            {
              OFFSET 26.8049 -0.0536703 -0.155908
              CHANNELS 3 Zrotation Xrotation Yrotation
              JOINT LeftHand
              {
                OFFSET 26.6817 0 0.320147
                CHANNELS 3 Zrotation Xrotation Yrotation
                End Site
                {
                  OFFSET 18.6119 0 0.382219
                }
              }
            }
          }
        }
        JOINT RightShoulder
        {
          OFFSET 27.5927 4.71444 -2.65209
          CHANNELS 3 Zrotation Xrotation Yrotation
          JOINT RightArm
          {
            OFFSET 2.83739 -1.17114 -18.7564
            CHANNELS 3 Zrotation Xrotation Yrotation
            JOINT RightForeArm
            {
              OFFSET 28.839 -0.0548439 1.22491
              CHANNELS 3 Zrotation Xrotation Yrotation
              JOINT RightHand
              {
                OFFSET 26.5114 0 -0.101894
                CHANNELS 3 Zrotation Xrotation Yrotation
                End Site
                {
                  OFFSET 18.2168 0 0
                }
              }
            }
          }
        }
      }
    }
  }
  JOINT LeftUpLeg
  {
    OFFSET -4.76168 -1.9167 -10.2353
    CHANNELS 3 Zrotation Xrotation Yrotation
    JOINT LeftLeg
    {
      OFFSET 2.55951 -42.0585 -8.02213
      CHANNELS 3 Zrotation Xrotation Yrotation
      JOINT LeftFoot
      {
        OFFSET 3.16357 -42.5282 -3.95426
        CHANNELS 3 Zrotation Xrotation Yrotation
        JOINT LeftToeBase
        {
          OFFSET 0.346054 -6.02161 12.8035
          CHANNELS 3 Zrotation Xrotation Yrotation
          End Site
          {
            OFFSET 0.134235 -1.35082 5.13018
          }
        }
      }
    }
  }
  JOINT RightUpLeg
  {
    OFFSET -4.94151 -1.41743 10.6446
    CHANNELS 3 Zrotation Xrotation Yrotation
    JOINT RightLeg
    {
      OFFSET -2.56294 -42.0364 -7.94377
      CHANNELS 3 Zrotation Xrotation Yrotation
      JOINT RightFoot
      {
        OFFSET -3.0952 -42.555 -4.02241
        CHANNELS 3 Zrotation Xrotation Yrotation
        JOINT RightToeBase
        {
          OFFSET -0.0828122 -6.13587 12.8035
          CHANNELS 3 Zrotation Xrotation Yrotation
          End Site
          {
            OFFSET -0.131328 -1.35082 5.13018
          }
        }
      }
    }
  }
}
MOTION
Frames:	8
Frame Time:	0.0333333
-2.41933 92.8315 -16.425 70.6837 -29.4325 -6.91 -70.1915 0 88.8779 66.1252 70.737 15.8868 8.32371 21.0458 0.501802 -118.311 29.1991 158.321 173.817 72.5034 -136.405 0.698318 -13.8705 -18.8384 -60.8608 25.8548 -146.392 13.0945 -1.38037 -95.2381 0.420957 0.000574795 0.358661 -0.223507 5.71136 18.3021 -130.364 -17.0644 94.6495 4.33733 1.3175 106.26 0.58676 0.000330351 0.0646653 -52.4793 16.7838 96.4292 -3.10493 43.4627 -7.83351 -2.49903 -13.8285 -1.17669 5.85483 -13.9788 14.186 -44.5709 -16.9065 79.9239 0.78998 22.4454 4.08975 -6.42691 16.6185 0.644771 1.91817 -16.3954 5.34254 
-2.68191 93.1144 -14.3736 70.3638 -28.5111 -6.91772 -70.1915 0 88.8779 67.6344 70.4296 14.4413 7.63564 20.4375 1.36665 -121.231 30.9188 158.287 173.414 73.9284 -138.956 0.761009 -13.4414 -18.13 -60.9904 28.3383 -149.861 14.1839 -1.57164 -95.5119 0.420957 0.000574795 0.358661 -0.67198 5.56857 27.1308 -125.907 -15.2411 97.4229 11.6615 3.61368 106.614 0.58676 0.000330351 0.0646653 -53.0943 17.5323 95.8873 -2.86885 41.1475 -7.85232 -2.35498 -10.9911 -0.883584 6.31007 -14.6575 13.9086 -45.4932 -16.4131 79.2662 1.22488 22.188 3.15071 -2.57186 13.4433 -0.268371 1.54799 -13.8999 3.89077 
-3.06641 93.3702 -12.2653 69.995 -27.7477 -6.71079 -70.1915 0 88.8779 68.9634 70.4028 13.2686 6.84922 19.9867 2.87807 -123.226 32.6044 158.56 170.939 75.1327 -138.578 0.755546 -13.4139 -18.3997 -61.4472 30.3148 -151.003 15.659 -1.97798 -96.3237 0.420957 0.000574795 0.358661 -1.2899 6.14055 35.6549 -123.768 -10.6711 98.0916 13.7564 4.04713 105.741 0.58676 0.000330351 0.0646653 -53.0454 18.935 95.7814 -2.7552 39.8175 -7.97738 -2.82172 -8.87124 -0.646213 6.0131 -14.1987 13.9078 -45.7941 -15.4751 78.8654 1.98551 22.6382 -2.79823 -4.76088 10.0333 0.414862 1.01282 -12.3028 8.24549 
-3.58358 93.5545 -10.4171 69.8371 -27.1473 -6.50934 -70.1915 0 88.8779 71.2023 70.4075 11.0096 6.22385 19.3929 4.7428 -125.814 34.4165 160.001 167.515 76.0578 -137.547 0.761555 -13.1525 -19.0667 -62.6506 31.4671 -150.246 17.5708 -2.62465 -97.5133 0.420957 0.000574795 0.358661 -1.70058 6.48876 40.7478 -123.191 -8.8909 97.5114 14.135 3.53366 103.431 0.58676 0.000330351 0.0646653 -52.3914 20.4934 96.306 -2.7249 39.7416 -7.87458 -3.38695 -6.48627 -0.354603 5.72733 -13.7479 13.6215 -45.8135 -14.5069 78.6149 2.51569 23.5998 -4.14094 -4.71277 7.59205 0.479909 0.898704 -10.5247 5.22266 
-4.19504 93.5665 -8.83791 69.7553 -26.449 -6.57132 -70.1915 0 88.8779 74.8509 70.5398 7.53439 5.36111 19.0654 5.76329 -127.005 35.2704 159.852 167.589 76.9184 -138.793 0.750517 -13.1612 -19.4403 -63.873 32.1141 -148.344 19.0427 -3.37554 -98.9486 0.420957 0.000574795 0.358661 -1.97622 6.43998 45.0666 -123.94 -7.02352 96.8394 15.7421 2.96174 100.099 0.58676 0.000330351 0.0646653 -50.5237 21.5697 96.7028 -2.51518 41.4391 -4.89922 -4.33707 -5.7397 -0.202581 3.84561 -10.479 11.6049 -45.2256 -14.1007 78.5535 2.64734 25.4208 -5.0104 -6.25233 5.65135 0.829896 0.884462 -11.2156 7.22038 
-4.80014 93.5214 -7.56307 69.7515 -26.1051 -6.47302 -70.1915 0 88.8779 79.7583 70.8879 3.86202 4.46389 19.2656 5.68782 -126.131 35.4244 157.658 171.458 78.0204 -142.024 0.739768 -13.2924 -19.3615 -64.3991 32.2449 -147.235 20.1058 -3.82262 -99.5825 0.420957 0.000574795 0.358661 -2.04767 5.93325 48.811 -125.084 -4.45587 96.5963 17.8083 2.09813 96.4907 0.58676 0.000330351 0.0646653 -48.2515 22.8017 98.4491 -2.20427 43.8466 -0.500643 -2.92346 -3.99361 -0.127392 2.48558 -8.53515 13.0588 -44.761 -13.4233 78.4902 2.61036 26.9231 -4.75189 -6.13028 3.18041 0.865552 0.577866 -9.37489 6.70512 
-5.23633 93.5266 -6.71433 69.5648 -25.6398 -6.61878 -70.1915 0 88.8779 82.719 71.1629 1.35803 3.57716 19.139 6.98949 -125.347 35.9748 157.233 169.857 78.6125 -139.761 0.706288 -13.4526 -19.9654 -64.7383 32.8919 -145.599 22.0801 -4.37402 -99.9072 0.420957 0.000574795 0.358661 -2.10519 5.96794 49.5172 -126.304 -2.55589 95.6645 19.5023 1.38264 92.6635 0.58676 0.000330351 0.0646653 -46.2278 22.7147 99.5826 -2.01758 45.5909 2.25189 -2.38551 -5.4375 -0.310859 1.65813 -8.11251 17.4839 -44.3122 -13.2521 78.3719 2.74831 27.7266 -5.9386 -6.24641 1.49987 0.921519 0.360531 -8.45355 7.23386 
-5.57681 93.6521 -6.10582 69.4212 -24.9369 -7.07239 -70.1915 0 88.8779 83.5769 71.2436 0.757747 3.24201 19.0471 7.44082 -123.384 35.8176 155.746 171.401 79.1393 -139.889 0.658221 -13.8214 -20.241 -64.815 33.2417 -144.22 23.1612 -4.67689 -100.05 0.420957 0.000574795 0.358661 -2.22938 6.18622 50.1837 -127.555 -0.155587 95.593 20.4817 -0.597466 89.4371 0.58676 0.000330351 0.0646653 -44.6876 21.2466 100.322 -2.52399 46.7113 -0.678471 -1.76991 -10.6398 -0.874246 3.40386 -10.571 16.9366 -43.8678 -13.6881 77.9815 2.68753 28.4676 -5.73239 -6.99349 0.969897 1.03746 0.239138 -8.22512 8.05895 
